<?xml version="1.0" encoding="UTF-8"?>
<svg id="Layer_1" data-name="Layer 1" xmlns="http://www.w3.org/2000/svg" viewBox="0 0 347.53 347.53">
  <defs>
    <style>
      .cls-1 {
        fill: #fff;
      }
    </style>
  </defs>
  <g>
    <path class="cls-1" d="m317,90.46v19.14h4.35v-7.7h2.06c2.41,0,3.55.93,3.9,3.03.57,2.22.92,3.97,1.49,4.67h4.7c-.46-.7-.8-1.87-1.37-4.78-.57-2.57-1.6-3.97-3.44-4.67v-.23c2.29-.7,3.9-2.33,3.9-4.43,0-1.87-.8-3.38-1.83-4.2-1.37-.82-2.98-1.4-6.53-1.4-3.09,0-5.5.23-7.22.58Zm10.88,5.48c0,1.98-1.95,2.8-4.35,2.8h-2.06v-5.48c.46-.12,1.26-.23,2.41-.23,2.75,0,4.01,1.17,4.01,2.92Z"/>
    <path class="cls-1" d="m304.97,99.56c0,10.85,8.59,19.37,19.36,19.37s19.25-8.52,19.25-19.37-8.36-19.14-19.25-19.14-19.36,8.52-19.36,19.14Zm33.8.12c0,8.4-6.07,15.17-14.32,15.17s-14.66-6.77-14.66-15.29,6.19-15.29,14.55-15.29,14.43,6.88,14.43,15.4Z"/>
  </g>
  <g>
    <path class="cls-1" d="m280.99,211.47v-36.94c0-5.91,2.71-11.32,6.93-15.5,2.8-2.79,4.3-6.82,3.57-11.18-.83-5.08-4.85-9.29-9.9-10.36-.2-.05-.41-.08-.6-.08v-47.45l-4.37.72v36.54c0,5.08-2.45,9.78-6.37,13.26-2.65,2.34-4.31,5.75-4.31,9.54,0,6.31,4.63,11.56,10.68,12.57v48.88h4.37Z"/>
    <path class="cls-1" d="m281.22,292.91s0-.03-.02-.03c-.11-17.05-.25-39.37-.21-57.16.87-.75,8.75-7.62,24.38-21.22-21.43.15-53,2.96-70.24-12.42-31.28-25.65-38.67-62.69-24.46-88.25,6.44-11.64,15.28-25.98,33.87-24.7,14.84,1.02,30.34-.08,44.57-3.94,28.04-7.6,51.11-25.89,54.47-59.53t-.06-.03c-21.57,41.47-52.59,39.43-85.39,25.61.27.07.54.15.81.21,5.56,1.3,11.6,2.08,18.15,2.36,6.53.26,12.67-.05,18.41-.94,5.72-.89,10.72-2.26,14.99-4.13,4.26-1.88,13.19-5.08,14.17-8-11.71.01-27.2,2.48-33.56,4.06-10.79,2.67-13.64,5.15-21.89,5.03-6.51-.1-11.55-1.75-21.46-5-5.01-1.64-8.97-3.13-11.82-4.27-6.25-3.29-12.52-6.75-18.73-10.17-3.17-1.75-6.35-3.52-9.53-5.22-12.74-6.86-25.15-13.04-36.76-16.68C121.03-8.08,54.26-.69,17.24,39.97,7.85,51.64,3.95,63.03,3.95,73.35c0,41.35,62.7,65.18,86.5,17.34q-.06-.02-.08-.05C3.98,146.7-23.92,31.72,74.19,25.47c7.38-1.12,15.65-.39,24.41,1.62-2.52-.06-5.03-.05-7.54.03-8.54.3-16.68,1.56-24.42,3.75-7.74,2.2-14.91,5.4-21.52,9.61-6.6,4.21-12.3,9.59-17.09,16.17,3.01-.59,6.31-1.64,9.86-3.14,3.55-1.49,7.31-3.23,11.25-5.21,3.95-1.98,8.05-4.13,12.28-6.43,4.24-2.3,8.56-4.57,12.96-6.77,6.11-3.04,12.77-5.02,19.95-5.94.03,0,.06-.01.09-.01,5.93-.75,11.98-.11,17.62,1.81,19.79,6.75,40.91,18.1,59.26,28.2,13.97,6.39,26.82,15.82,16.42,31.85-15.36,19.56-52.05,69.02-92.7,126.88-16.57-56.11,2.72-105.53,48.75-140.9-36.55,16.08-75.09,53.63-84.29,93.74-40.77,172.69,200.12,246.21,272.15,95.19,4.4-9.19,8.15-19.23,11.18-30.12-17.03,23.36-39.01,48.92-61.59,57.12Zm-173.07-75.07s75.74-105.05,75.8-104.93c.48,1.27.92,2.58,1.32,3.92,2.17,7.11,3.12,14.54,3.12,21.98v77.76c-.24.6-.61,1.08-1.18,1.32h-79.06v-.05Zm-7.86,20.47l86.84-.05h.03s.01.01.02.02c.83.97,1.21,2.24,1.21,3.52v9.89c-29.62-17.27-71.81,26.59-88.1-13.37Zm90.48,68.34c-28.36-4.45-58.46-12.51-75.65-40.06,22.46-17.98,64.1-4.36,74.06,20.16-8.44-10.5-33.32-26.41-46.57-19.22,18.23,8.91,56.03,10.67,48.15,39.13Zm24.69,2.07c.11-22.78-.23-45.74-.03-68.57,0-2.43,2.69-4.33,5.2-4.36h55.97l.03.03c1.78,56.35,1.21,72.04-61.17,72.89Z"/>
  </g>
</svg>