<?xml version="1.0" encoding="UTF-8"?>
<svg id="Layer_1" data-name="Layer 1" xmlns="http://www.w3.org/2000/svg" viewBox="0 0 595.28 420.94">
  <path d="m339.07,270.82c.27-.24.42-.42.6-.53,5.76-3.67,7.71-9.17,7.67-15.71-.06-9.9-.02-19.8-.02-29.7,0-19.92.01-39.84-.01-59.77,0-3.86-.32-7.72-2.63-11.01-1.47-2.1-3.23-4-4.86-5.99-.2.12-.4.24-.61.36.52,0,1.04,0,1.56,0,9.28,0,18.56-.09,27.84.03,8.26.11,16.4,1.07,24.1,4.36,10.21,4.35,16.44,11.69,16.88,23.12.45,11.57-4.62,20.12-14.76,25.63-2.31,1.26-4.81,2.17-7.44,3.34,2.32.65,4.51,1.2,6.65,1.87,5.23,1.64,10.12,3.98,14.39,7.47,8.26,6.74,11.48,15.57,10.51,26-.88,9.48-5.26,17.06-13.24,22.32-6.61,4.35-14.05,6.73-21.87,7.61-14.67,1.66-29.42.49-44.13.79-.16,0-.32-.09-.66-.19Zm22.23-62.65c0,.95,0,1.8,0,2.64,0,13.92,0,27.83,0,41.75,0,1.23.05,2.47.16,3.7.42,4.65,2.91,7.88,7.49,8.71,3.29.6,6.78.8,10.11.46,9.57-.96,17.22-5.2,21.58-14.17,2.8-5.77,3.51-11.91,2.83-18.25-.85-7.91-4.24-14.39-10.84-19-9.47-6.62-20.28-6.09-31.34-5.85Zm.12-5.17c5.07-.4,9.93-.39,14.62-1.27,3.31-.62,6.68-2.01,9.51-3.84,7.48-4.84,9.73-12.42,9.71-20.88-.02-9.88-5.18-17.26-14.38-20.84-5.72-2.23-11.68-2.43-17.69-2.45-1.61,0-1.93.55-1.92,2.02.05,14.96.03,29.93.03,44.89,0,.6.06,1.21.12,2.38Z"/>
  <path d="m187.56,270.67c1.21-1.05,2.64-2.12,3.86-3.39,3.2-3.34,4.07-7.53,4.07-11.97.01-18.44,0-36.87,0-55.31,0-11.51-.09-23.02.04-34.52.08-6.82-1.73-12.56-7.82-16.35-.14-.08-.21-.27-.5-.65.74,0,1.26,0,1.78,0,10.08,0,20.17-.08,30.25.03,11.33.12,22.24,2.25,32.35,7.58,13.24,6.98,22.19,17.69,26.53,31.96,5.31,17.46,4.9,34.78-2.85,51.55-4.45,9.63-11.37,17.23-20.51,22.62-8.19,4.83-17.07,8.1-26.61,8.36-13.53.37-27.08.09-40.61.09Zm22-116.85v2.77c0,20.73,0,41.45,0,62.18,0,11.75-.02,23.51,0,35.26.01,6.24,2.78,9.67,8.86,11,7.59,1.67,14.95.69,21.9-2.58,9.43-4.44,15.38-12.2,19.39-21.58,3.47-8.12,4.98-16.67,5.36-25.45.52-12.02-.35-23.87-4.65-35.24-3.89-10.28-10.56-18.06-20.83-22.48-9.54-4.1-19.6-4.11-30.03-3.89Z"/>
  <path d="m429.88,242.09c1.33,1.41,2.51,2.72,3.75,3.97,4.56,4.62,8.87,9.53,13.77,13.76,8.93,7.73,22.34,8.19,31.09,1.44,6.35-4.9,8.78-11.6,8.39-19.43-.47-9.57-5.48-16.58-13.05-21.77-6.93-4.76-14.27-8.91-21.28-13.55-4.42-2.93-8.89-5.92-12.8-9.46-12.1-10.96-12.48-29.72-1.01-40.87,5.49-5.34,12.31-7.98,19.81-8.77,11.59-1.22,22.32,1.52,32.3,7.44,1.16.69,1.58,1.47,1.56,2.81-.07,5.19-.03,10.38-.03,16.1-.77-.71-1.23-1.12-1.68-1.54-4.22-4-8.28-8.17-12.69-11.95-4.49-3.84-9.68-6.49-15.74-6.77-6.26-.29-11.98,1.11-16.1,6.28-4.42,5.55-4.55,14.09-.46,20.56,2.64,4.18,6.4,7.22,10.42,9.9,7.46,4.98,15.03,9.79,22.52,14.72,5.86,3.86,11.41,8.11,15.51,13.93,9.79,13.91,6.76,34.01-6.55,44.61-11,8.75-23.32,11.03-36.84,8.14-7.36-1.57-14.01-4.77-20.22-8.92-.47-.31-.89-1.09-.9-1.66-.06-6.06-.03-12.13-.02-18.19,0-.16.11-.32.26-.75Z"/>
  <path d="m91.94,162.46c-.63-2.07.94-1.84,1.99-1.98,9.3-1.27,18.08-4.06,26.22-8.76,1.91-1.1,3.76-2.29,5.81-3.54-.18,4.04-.5,7.8-.5,11.56-.05,30.75-.04,61.5-.07,92.25,0,8.29,3.63,14.19,11.24,17.58.72.32,1.41.72,2.56,1.3h-41.65c1.91-1.04,3.56-1.89,5.18-2.82,5.28-3.05,8.12-7.63,8.5-13.72.09-1.36.17-2.72.17-4.08.01-24.07.02-48.14,0-72.21,0-1.91-.05-3.85-.36-5.74-.85-5.23-4.21-8.13-10.33-8.97-2.87-.39-5.76-.58-8.75-.88Z"/>
  <path d="m323.39,270.94h-30.05c.6-.5.94-.82,1.32-1.08,4.85-3.31,7-8.02,7.02-13.77.04-8.54.02-17.07.02-25.61,0-22.15,0-44.29,0-66.44,0-5.31-1.42-10.02-5.8-13.44-.77-.6-1.56-1.19-2.61-1.99h30.73c-.58.49-.99.89-1.45,1.2-4.45,3.02-6.46,7.34-6.73,12.58-.06,1.17-.05,2.35-.05,3.53,0,29.51,0,59.02,0,88.52,0,3.43.04,6.93,1.98,9.86,1.6,2.42,3.76,4.47,5.64,6.64Z"/>
  <path d="m172.52,162.5c-2.51-2.07-4.6-4-6.91-5.65-2.65-1.9-5.57-3.2-9.01-2.51-4.62.92-6.52,5.95-3.46,9.55,1.26,1.48,2.88,2.71,4.48,3.85,3.07,2.19,6.28,4.17,9.36,6.36,3.34,2.37,6.1,5.24,7.07,9.42,1.88,8.07-3.51,15.89-12.18,17.57-6.18,1.19-11.74-.59-16.96-3.77-.35-.22-.71-.76-.71-1.16-.06-3.27-.03-6.53-.03-10.32.77.76,1.2,1.23,1.68,1.65,2.79,2.43,5.46,5.02,8.42,7.21,2.18,1.61,4.86,2.05,7.61,1.42,4.93-1.13,6.94-6.3,3.88-10.36-1.02-1.35-2.39-2.51-3.78-3.51-3.86-2.78-7.88-5.34-11.73-8.15-4.82-3.52-7-8.25-5.78-14.23,1.13-5.51,5.65-9.38,11.79-10.26,5.46-.79,10.55.48,15.4,2.91.37.18.81.69.82,1.05.07,2.88.04,5.76.04,8.92Z"/>
  <path d="m142.38,228.1c5.71-5.54,11.42-11.08,17.46-16.94v10.73h18.29c-.56,2.19-.96,4.12-1.6,5.96-.15.44-1.09.85-1.67.86-4.27.07-8.53.04-12.8.05-.61,0-1.22,0-1.89,0-.11.42-.25.7-.25.98.1,8.78.09,17.56.36,26.34.24,8.03,5.98,9.68,11.56,7.77,2.64-.9,5.06-2.47,7.61-3.75,0,.09.1.41-.01.62-3.58,6.28-8.68,10.51-16.11,10.97-6.76.43-11.28-3.83-11.59-10.91-.28-6.3-.14-12.61-.16-18.92-.02-3.83-.04-7.67.02-11.5.02-1.21-.39-1.64-1.6-1.61-2.4.07-4.8.02-7.2.02-.14-.22-.27-.44-.41-.66Z"/>
</svg>