<?xml version="1.0" encoding="UTF-8"?>
<svg id="Layer_1" data-name="Layer 1" xmlns="http://www.w3.org/2000/svg" viewBox="0 0 612 612">
  <path d="m508.6,358.27c-7.51-.43-15.04-.5-22.49-1.5-2.79-.36-5.67-2.47-7.9-4.47-50.78-45.49-101.58-90.98-152.04-136.79-5.42-4.92-9.92-5.72-16.7-3.81-17.7,4.97-35.51,9.78-53.55,13.32-31.61,6.22-61.6-6.97-75.85-32.17-6.97-12.34-2.97-21.69,10.51-26.32,30.43-10.48,60.72-21.44,91.14-31.97,8.21-2.84,16.59-5.92,25.12-6.81,7.92-.82,16.68-.45,24.1,2.16,32.9,11.5,65.41,24.12,98.2,35.96,3.27,1.18,7.58.61,11.1-.34,21.99-5.88,43.97-11.82,65.75-18.36,5.42-1.63,8.26-.18,10.6,4.08,14.18,25.89,29.31,51.32,42.18,77.85,13.41,27.66,24.5,56.43,36.85,84.59,2.06,4.72,1.54,7.69-2.25,11.34-20.08,19.38-44.45,28.77-71.68,31.92-4.33.5-8.71.66-13.07.98v.36l-.02-.02Z"/>
  <path d="m118.27,311.89c14.84-6.94,28.23-5.13,39.32,6.67,10.55,11.23,10.94,24.16,3.74,38.39,14.7-.75,26.86,3.43,34.17,16.31,7.35,13.02,5.7,25.53-4.45,36.96,5.47.79,10.55.86,15.2,2.31,22.39,7.06,29.13,32.65,13.32,49.96-8.19,8.96-16.34,17.92-24.62,26.8-11.75,12.59-30.56,13.75-41.82.75-25.87-29.84-50.85-60.42-75.9-90.96-10.14-12.37-19.81-25.16-29.06-38.19-3.99-5.63-7.19-12.09-9.42-18.63-3.02-8.89-.77-17.2,5.88-24.12,6.22-6.47,12.5-12.89,18.56-19.51,15.54-17.04,41.04-13.89,51.73,6.49,1.11,2.11,2.13,4.27,3.36,6.76h-.02Z"/>
  <path d="m475.04,376.92c9.28.82,17.95,1.59,27.39,2.43,3.77,15,.23,28.91-7.81,41.77-6.85,10.98-16.52,19.04-28.91,23.23-4.06,1.38-5.92,3.58-7.42,7.74-7.96,22.12-23.55,35.67-47.01,39.37-4.67.73-7.44,2.45-9.92,6.78-15.13,26.43-48.9,35.94-75.9,21.76-1.47-.77-2.93-1.61-4.61-2.54-12.09,11.75-26.18,18.36-43.2,17.86-12.84-.39-24.44-4.17-33.76-13.14-8.87-8.53-17.2-17.65-26.05-26.82,5.4-5.92,11.12-12.14,17.81-19.47,7.31,7.78,14.09,15.38,21.26,22.58,15.86,15.86,34.99,14.23,49.35-5.38-12.84-12.41-25.93-25-38.96-37.64-5.4-5.24-10.71-10.57-16.06-15.86-6.85-6.78-7.87-12.66-3.09-17.58,5.06-5.2,10.62-4.47,17.54,2.43,22.67,22.62,45.31,45.29,67.98,67.91,14.29,14.25,41.7,7.49,47.26-12,.66-2.29-1.63-6.26-3.68-8.33-24.73-25.03-49.69-49.83-74.6-74.69-7.37-7.37-14.75-14.77-22.12-22.14-6.26-6.26-7.17-12.34-2.54-17.06,4.61-4.7,11.07-4.04,17.18,2.04,33.67,33.6,67.41,67.18,100.85,101.01,4.61,4.65,9.3,6.56,14.77,3.65,6.26-3.34,13.02-6.83,17.63-11.98,8.37-9.35,7.44-14.5-1.29-23.23-36.05-36.03-72.08-72.08-108.14-108.14-1.02-1.02-2.11-2-3.09-3.09-4.61-5.2-4.79-11.41-.48-15.56,4.13-3.97,10.21-4.02,15.04.57,8.26,7.85,16.22,16.02,24.3,24.1,29.86,29.86,59.79,59.65,89.46,89.67,3.9,3.95,7.33,4.45,12.25,2.63,16.86-6.17,24.39-22.8,18.51-42.91l.02.05Z"/>
  <path d="m259.74,119.92c-13.75,4.76-25.55,9.1-37.53,12.86-2.68.84-6.15.34-8.94-.54-33.19-10.57-66.39-21.19-99.45-32.22-5.17-1.72-8.53-.86-12.34,2.52-43.29,38.41-63.55,86.31-59.26,144.19.32,4.4,2.29,8.92,4.47,12.86,2.99,5.45,6.92,10.39,9.82,14.63-5.72,6.31-11.34,12.55-17.13,18.92-17.29-17.13-24.66-37.12-24.16-61.1,1.36-67.25,28.84-120.46,83.47-159.57,2.45-1.75,6.94-2.43,9.8-1.52,48.65,15.5,97.18,31.33,145.73,47.08,1.11.36,2.2.75,5.49,1.88h.02Z"/>
</svg>