<?xml version="1.0" encoding="UTF-8"?>
<svg id="Layer_1" data-name="Layer 1" xmlns="http://www.w3.org/2000/svg" viewBox="0 0 1000.19 375.6">
  <g>
    <path d="m375.05,230.71c-12.56,10.53-27.06,15.8-43.49,15.8s-27.93-4.06-35.66-12.18c-7.73-8.12-11.6-18.46-11.6-31.02,0-7.63,1.47-15.15,4.42-22.54,2.95-7.39,7.1-14.13,12.47-20.22,5.36-6.09,12.32-11.02,20.87-14.79,8.55-3.77,17.95-5.65,28.19-5.65,15.08,0,27.25,5.41,36.53,16.24l-20.73,17.39c-5.12-5.89-11.84-8.84-20.15-8.84-6.96,0-13.02,1.86-18.19,5.58-5.17,3.72-8.89,8.09-11.16,13.12s-3.41,10.15-3.41,15.37c0,6.48,1.84,11.96,5.51,16.45s9.42,6.74,17.25,6.74c3.77,0,8-.85,12.68-2.54,4.69-1.69,9.01-4.28,12.97-7.76l13.48,18.84Z"/>
    <path d="m491.23,217.15c-5.65,9.62-13.48,16.89-23.48,21.82s-21.33,7.39-33.99,7.39c-14.79,0-26.58-3.87-35.37-11.6-8.79-7.73-13.29-18.46-13.48-32.18-.19-12.56,2.56-23.63,8.26-33.2s13.55-16.86,23.56-21.89,21.28-7.54,33.85-7.54c14.79,0,26.58,3.87,35.37,11.6,8.79,7.73,13.29,18.46,13.48,32.18.19,12.66-2.54,23.8-8.19,33.41Zm-26.6-46.39c-4.06-4.2-9.71-6.31-16.96-6.31-9.28,0-17.2,3.21-23.77,9.64-6.57,6.43-9.91,14.42-10,23.99-.19,7.05,1.76,12.78,5.87,17.18,4.11,4.4,9.69,6.59,16.74,6.59,9.57,0,17.56-3.24,23.99-9.71,6.43-6.47,9.74-14.59,9.93-24.35.19-7.15-1.74-12.83-5.8-17.03Z"/>
    <path d="m551.47,142.43l-13.48,77.12h48.56l-4.35,24.35h-77.26l17.83-101.47h28.7Z"/>
    <path d="m641.05,142.43l-13.48,77.12h48.56l-4.35,24.35h-77.26l17.83-101.47h28.7Z"/>
    <path d="m758.18,227.23h-45.37l-9.57,16.67h-31.31l63.35-101.47h28.99l27.54,101.47h-29.86l-3.77-16.67Zm-12.61-55.66l-18.7,31.6h25.95l-7.25-31.6Z"/>
    <path d="m869.08,142.43c9.66,0,17.56,2.05,23.7,6.16,6.14,4.11,9.21,10.08,9.21,17.9,0,11.02-5.03,19.09-15.08,24.21,6.86,4.06,10.29,10.58,10.29,19.57,0,6.09-1.35,11.4-4.06,15.95s-6.31,8.04-10.8,10.51c-4.49,2.46-9.25,4.28-14.28,5.44-5.02,1.16-10.29,1.74-15.8,1.74h-52.33l17.83-101.47h51.31Zm-36.96,79.15h24.21c4.06,0,7.18-1.04,9.35-3.12,2.17-2.08,3.26-4.76,3.26-8.04,0-2.42-.8-4.37-2.39-5.87s-3.84-2.25-6.74-2.25h-24.21l-3.48,19.28Zm7.1-40.44h22.9c3.29,0,5.87-.82,7.76-2.46s2.83-3.77,2.83-6.38c0-1.93-.65-3.53-1.96-4.78-1.3-1.26-3.16-1.88-5.58-1.88h-23.19l-2.75,15.51Z"/>
    <path d="m982.58,170.26c-5.12-4.35-12.61-6.52-22.47-6.52-4.16,0-7.75.72-10.8,2.17-3.04,1.45-4.57,3.67-4.57,6.67,0,2.61,1.21,4.4,3.62,5.36s6.33,1.69,11.74,2.17c4.74.58,9.13,1.52,13.19,2.83s7.85,3.07,11.38,5.29,6.28,5.17,8.26,8.84c1.98,3.67,2.97,7.83,2.97,12.47,0,6.38-1.38,12.01-4.13,16.89-2.75,4.88-6.55,8.77-11.38,11.67-4.83,2.9-10.22,5.07-16.16,6.52-5.94,1.45-12.34,2.17-19.21,2.17-9.47,0-17.56-1.3-24.28-3.91-6.72-2.61-12.68-7.25-17.9-13.92l18.99-18.12c6.47,7.63,15.7,11.45,27.69,11.45,5.12,0,9.35-.89,12.68-2.68,3.33-1.79,5-4.18,5-7.18,0-4.54-5.17-7.34-15.51-8.41-5.41-.48-10.08-1.23-13.99-2.25-3.91-1.01-7.63-2.51-11.16-4.49-3.53-1.98-6.21-4.69-8.05-8.12-1.84-3.43-2.75-7.56-2.75-12.39,0-6.18,1.4-11.69,4.2-16.52,2.8-4.83,6.55-8.65,11.23-11.45,4.69-2.8,9.83-4.9,15.44-6.31,5.61-1.4,11.45-2.1,17.54-2.1,15.17,0,27.11,4.01,35.8,12.03l-17.39,17.83Z"/>
  </g>
  <g>
    <path d="m224.03,233.04c-3.31-.19-6.63-.22-9.91-.66-1.23-.16-2.5-1.09-3.48-1.97-22.38-20.05-44.77-40.1-67.01-60.29-2.39-2.17-4.37-2.52-7.36-1.68-7.8,2.19-15.65,4.31-23.6,5.87-13.93,2.74-27.15-3.07-33.43-14.18-3.07-5.44-1.31-9.56,4.63-11.6,13.41-4.62,26.76-9.45,40.17-14.09,3.62-1.25,7.31-2.61,11.07-3,3.49-.36,7.35-.2,10.62.95,14.5,5.07,28.83,10.63,43.28,15.85,1.44.52,3.34.27,4.89-.15,9.69-2.59,19.38-5.21,28.98-8.09,2.39-.72,3.64-.08,4.67,1.8,6.25,11.41,12.92,22.62,18.59,34.31,5.91,12.19,10.8,24.87,16.24,37.28.91,2.08.68,3.39-.99,5-8.85,8.54-19.59,12.68-31.59,14.07-1.91.22-3.84.29-5.76.43v.16Z"/>
    <path d="m52,212.6c6.54-3.06,12.44-2.26,17.33,2.94,4.65,4.95,4.82,10.65,1.65,16.92,6.48-.33,11.84,1.51,15.06,7.19,3.24,5.74,2.51,11.25-1.96,16.29,2.41.35,4.65.38,6.7,1.02,9.87,3.11,12.84,14.39,5.87,22.02-3.61,3.95-7.2,7.9-10.85,11.81-5.18,5.55-13.47,6.06-18.43.33-11.4-13.15-22.41-26.63-33.45-40.09-4.47-5.45-8.73-11.09-12.81-16.83-1.76-2.48-3.17-5.33-4.15-8.21-1.33-3.92-.34-7.58,2.59-10.63,2.74-2.85,5.51-5.68,8.18-8.6,6.85-7.51,18.09-6.12,22.8,2.86.49.93.94,1.88,1.48,2.98Z"/>
    <path d="m209.24,241.26c4.09.36,7.91.7,12.07,1.07,1.66,6.61.1,12.74-3.44,18.41-3.02,4.84-7.28,8.39-12.74,10.24-1.79.61-2.61,1.58-3.27,3.41-3.51,9.75-10.38,15.72-20.72,17.35-2.06.32-3.28,1.08-4.37,2.99-6.67,11.65-21.55,15.84-33.45,9.59-.65-.34-1.29-.71-2.03-1.12-5.33,5.18-11.54,8.09-19.04,7.87-5.66-.17-10.77-1.84-14.88-5.79-3.91-3.76-7.58-7.78-11.48-11.82,2.38-2.61,4.9-5.35,7.85-8.58,3.22,3.43,6.21,6.78,9.37,9.95,6.99,6.99,15.42,6.27,21.75-2.37-5.66-5.47-11.43-11.02-17.17-16.59-2.38-2.31-4.72-4.66-7.08-6.99-3.02-2.99-3.47-5.58-1.36-7.75,2.23-2.29,4.68-1.97,7.73,1.07,9.99,9.97,19.97,19.96,29.96,29.93,6.3,6.28,18.38,3.3,20.83-5.29.29-1.01-.72-2.76-1.62-3.67-10.9-11.03-21.9-21.96-32.88-32.92-3.25-3.25-6.5-6.51-9.75-9.76-2.76-2.76-3.16-5.44-1.12-7.52,2.03-2.07,4.88-1.78,7.57.9,14.84,14.81,29.71,29.61,44.45,44.52,2.03,2.05,4.1,2.89,6.51,1.61,2.76-1.47,5.74-3.01,7.77-5.28,3.69-4.12,3.28-6.39-.57-10.24-15.89-15.88-31.77-31.77-47.66-47.66-.45-.45-.93-.88-1.36-1.36-2.03-2.29-2.11-5.03-.21-6.86,1.82-1.75,4.5-1.77,6.63.25,3.64,3.46,7.15,7.06,10.71,10.62,13.16,13.16,26.35,26.29,39.43,39.52,1.72,1.74,3.23,1.96,5.4,1.16,7.43-2.72,10.75-10.05,8.16-18.91Z"/>
    <path d="m114.35,127.99c-6.06,2.1-11.26,4.01-16.54,5.67-1.18.37-2.71.15-3.94-.24-14.63-4.66-29.26-9.34-43.83-14.2-2.28-.76-3.76-.38-5.44,1.11-19.08,16.93-28.01,38.04-26.12,63.55.14,1.94,1.01,3.93,1.97,5.67,1.32,2.4,3.05,4.58,4.33,6.45-2.52,2.78-5,5.53-7.55,8.34-7.62-7.55-10.87-16.36-10.65-26.93.6-29.64,12.71-53.09,36.79-70.33,1.08-.77,3.06-1.07,4.32-.67,21.44,6.83,42.83,13.81,64.23,20.75.49.16.97.33,2.42.83Z"/>
  </g>
</svg>