<?xml version="1.0" encoding="UTF-8"?>
<svg id="Layer_1" data-name="Layer 1" xmlns="http://www.w3.org/2000/svg" viewBox="0 0 1000.19 375.6">
  <path d="m606.13,337.02c.67-.6,1.03-1.02,1.48-1.31,14.12-9.01,18.9-22.49,18.81-38.52-.14-24.26-.04-48.53-.04-72.8,0-48.83.04-97.67-.03-146.5-.01-9.46-.8-18.93-6.44-26.98-3.61-5.15-7.92-9.8-11.92-14.68-.5.29-.99.59-1.48.88,1.28,0,2.55,0,3.83,0,22.75,0,45.5-.22,68.25.08,20.24.27,40.2,2.63,59.08,10.68,25.04,10.67,40.31,28.65,41.38,56.66,1.09,28.37-11.33,49.32-36.18,62.82-5.67,3.08-11.78,5.32-18.23,8.19,5.7,1.59,11.05,2.95,16.31,4.59,12.83,4.02,24.8,9.76,35.28,18.31,20.24,16.52,28.14,38.17,25.76,63.73-2.17,23.24-12.9,41.83-32.46,54.71-16.21,10.67-34.44,16.49-53.6,18.66-35.97,4.06-72.11,1.21-108.17,1.93-.39,0-.78-.21-1.61-.46Zm54.5-153.56c0,2.34,0,4.4,0,6.47,0,34.11,0,68.23.02,102.34,0,3.03.11,6.07.38,9.08,1.03,11.39,7.14,19.31,18.37,21.35,8.08,1.47,16.62,1.95,24.77,1.13,23.46-2.36,42.21-12.74,52.9-34.74,6.87-14.13,8.61-29.19,6.94-44.73-2.08-19.39-10.39-35.27-26.57-46.58-23.22-16.23-49.71-14.93-76.83-14.33Zm.3-12.67c12.43-.97,24.34-.95,35.84-3.12,8.11-1.53,16.38-4.93,23.32-9.42,18.35-11.87,23.85-30.45,23.81-51.18-.04-24.22-12.7-42.3-35.25-51.1-14.01-5.47-28.62-5.95-43.37-6.02-3.95-.02-4.72,1.34-4.71,4.96.12,36.68.06,73.36.07,110.04,0,1.48.14,2.96.28,5.83Z"/>
  <path d="m234.74,336.65c2.97-2.57,6.48-5.19,9.47-8.31,7.84-8.18,9.98-18.46,9.99-29.34.03-45.19.02-90.38.02-135.58,0-28.21-.23-56.42.09-84.62.19-16.71-4.25-30.8-19.18-40.09-.33-.21-.51-.65-1.22-1.59,1.81,0,3.08,0,4.36,0,24.72,0,49.44-.2,74.16.07,27.77.3,54.53,5.51,79.3,18.57,32.45,17.11,54.39,43.37,65.03,78.35,13.02,42.8,12,85.27-6.97,126.37-10.9,23.61-27.87,42.23-50.26,55.45-20.07,11.85-41.85,19.85-65.24,20.49-33.17.91-66.37.23-99.54.23Zm53.93-286.44v6.78c0,50.8,0,101.61,0,152.41,0,28.81-.04,57.63.02,86.44.04,15.3,6.8,23.69,21.71,26.98,18.6,4.1,36.65,1.69,53.68-6.32,23.12-10.88,37.71-29.91,47.53-52.89,8.5-19.89,12.2-40.85,13.13-62.39,1.28-29.47-.86-58.52-11.4-86.38-9.53-25.19-25.9-44.28-51.07-55.1-23.39-10.06-48.05-10.07-73.6-9.53Z"/>
  <path d="m828.73,266.6c3.26,3.46,6.16,6.66,9.19,9.74,11.18,11.32,21.75,23.35,33.75,33.73,21.9,18.94,54.76,20.08,76.2,3.52,15.56-12.01,21.51-28.43,20.57-47.64-1.15-23.46-13.44-40.63-32-53.37-16.98-11.66-34.97-21.84-52.16-33.21-10.84-7.17-21.79-14.51-31.38-23.2-29.65-26.86-30.58-72.84-2.49-100.19,13.45-13.09,30.16-19.56,48.55-21.49,28.41-2.99,54.71,3.73,79.19,18.24,2.85,1.69,3.88,3.61,3.83,6.9-.18,12.72-.07,25.45-.07,39.46-1.89-1.74-3.01-2.75-4.11-3.79-10.34-9.8-20.31-20.03-31.11-29.29-10.99-9.42-23.73-15.91-38.59-16.6-15.34-.71-29.38,2.72-39.47,15.39-10.84,13.6-11.15,34.54-1.13,50.4,6.47,10.24,15.68,17.69,25.55,24.27,18.29,12.2,36.84,23.99,55.2,36.08,14.37,9.46,27.97,19.87,38.02,34.15,24.01,34.1,16.57,83.37-16.06,109.34-26.95,21.45-57.17,27.03-90.31,19.95-18.04-3.85-34.33-11.7-49.56-21.88-1.15-.77-2.18-2.67-2.2-4.06-.15-14.86-.09-29.73-.06-44.6,0-.39.27-.79.65-1.84Z"/>
  <path d="m.36,71.42c-1.56-5.06,2.3-4.51,4.89-4.86,22.79-3.1,44.31-9.96,64.27-21.48,4.67-2.69,9.22-5.6,14.25-8.68-.45,9.89-1.22,19.11-1.23,28.33-.13,75.38-.1,150.76-.18,226.14-.02,20.31,8.89,34.78,27.55,43.1,1.77.79,3.45,1.75,6.27,3.2H14.07c4.67-2.54,8.74-4.64,12.7-6.92,12.94-7.47,19.89-18.71,20.84-33.63.21-3.33.41-6.66.41-10,.02-59,.04-118-.02-177,0-4.69-.13-9.45-.88-14.06-2.09-12.81-10.33-19.94-25.32-22-7.03-.97-14.12-1.43-21.46-2.15Z"/>
  <path d="m567.71,337.33h-73.66c1.48-1.21,2.31-2.01,3.24-2.64,11.89-8.12,17.16-19.65,17.22-33.74.09-20.93.05-41.85.05-62.78,0-54.29,0-108.57-.02-162.86,0-13.01-3.49-24.55-14.22-32.95-1.89-1.48-3.82-2.91-6.41-4.88h75.32c-1.43,1.19-2.42,2.17-3.55,2.94-10.91,7.39-15.83,17.99-16.5,30.84-.15,2.87-.12,5.76-.12,8.64,0,72.33,0,144.67-.02,217,0,8.41.11,17,4.85,24.16,3.93,5.93,9.22,10.95,13.82,16.28Z"/>
  <path d="m197.87,71.5c-6.14-5.07-11.28-9.81-16.93-13.84-6.51-4.65-13.66-7.84-22.09-6.16-11.32,2.26-15.99,14.58-8.47,23.4,3.1,3.63,7.05,6.64,10.97,9.44,7.52,5.37,15.41,10.23,22.94,15.58,8.19,5.82,14.95,12.85,17.33,23.1,4.6,19.79-8.59,38.96-29.85,43.07-15.14,2.93-28.78-1.43-41.58-9.23-.86-.53-1.73-1.86-1.75-2.84-.14-8.01-.08-16.02-.08-25.29,1.9,1.87,2.94,3.02,4.11,4.04,6.83,5.96,13.37,12.31,20.65,17.68,5.34,3.94,11.91,5.02,18.66,3.48,12.1-2.76,17.02-15.44,9.5-25.38-2.51-3.32-5.87-6.15-9.27-8.6-9.47-6.81-19.32-13.1-28.75-19.98-11.81-8.62-17.15-20.23-14.16-34.89,2.76-13.51,13.84-22.98,28.89-25.15,13.39-1.93,25.86,1.19,37.76,7.14.9.45,1.99,1.68,2.01,2.57.16,7.06.09,14.13.09,21.86Z"/>
  <path d="m123.99,232.32c14-13.58,28-27.17,42.79-41.52v26.3h44.84c-1.37,5.36-2.35,10.09-3.92,14.62-.37,1.08-2.67,2.08-4.1,2.1-10.46.18-20.92.11-31.38.11-1.49,0-2.99,0-4.64,0-.27,1.02-.61,1.71-.6,2.4.24,21.52.23,43.05.88,64.56.59,19.68,14.66,23.73,28.34,19.06,6.48-2.21,12.4-6.06,18.65-9.2,0,.21.25,1.01-.04,1.51-8.78,15.39-21.27,25.75-39.49,26.9-16.57,1.04-27.64-9.39-28.41-26.75-.68-15.44-.33-30.92-.4-46.38-.04-9.4-.1-18.8.05-28.2.05-2.97-.95-4.03-3.91-3.95-5.88.16-11.76.05-17.65.05-.33-.54-.67-1.07-1-1.61Z"/>
</svg>