<?xml version="1.0" encoding="UTF-8"?>
<svg id="Layer_1" data-name="Layer 1" xmlns="http://www.w3.org/2000/svg" viewBox="0 0 500 500">
  <path d="m73.15,57.81c-2.57-8.36,3.79-7.44,8.07-8.03,37.62-5.12,73.16-16.45,106.11-35.46,7.71-4.45,15.22-9.25,23.53-14.33-.74,16.34-2.01,31.55-2.04,46.77-.22,124.46-.17,248.92-.3,373.38-.03,33.53,14.68,57.42,45.48,71.17,2.92,1.3,5.7,2.9,10.36,5.28H95.79c7.71-4.19,14.43-7.66,20.97-11.43,21.37-12.34,32.85-30.9,34.42-55.53.35-5.49.68-11,.68-16.5.04-97.41.06-194.83-.03-292.24,0-7.74-.21-15.59-1.45-23.21-3.44-21.15-17.06-32.92-41.8-36.32-11.6-1.6-23.31-2.36-35.43-3.54Z"/>
  <path d="m399.25,57.95c-10.15-8.37-18.63-16.2-27.95-22.86-10.74-7.68-22.55-12.94-36.48-10.16-18.69,3.72-26.4,24.07-13.99,38.64,5.11,6,11.64,10.97,18.11,15.59,12.42,8.86,25.43,16.89,37.87,25.73,13.52,9.61,24.68,21.21,28.62,38.14,7.59,32.68-14.19,64.32-49.29,71.1-24.99,4.83-47.52-2.37-68.65-15.25-1.43-.87-2.86-3.08-2.89-4.69-.23-13.22-.13-26.45-.13-41.75,3.13,3.09,4.86,4.99,6.78,6.67,11.28,9.84,22.08,20.33,34.09,29.19,8.82,6.5,19.66,8.29,30.81,5.75,19.97-4.55,28.1-25.49,15.69-41.91-4.14-5.48-9.69-10.16-15.31-14.2-15.64-11.25-31.9-21.63-47.46-32.98-19.51-14.24-28.32-33.4-23.37-57.6,4.56-22.3,22.85-37.95,47.7-41.53,22.11-3.19,42.7,1.96,62.35,11.79,1.49.75,3.29,2.77,3.33,4.24.27,11.66.15,23.33.15,36.09Z"/>
  <path d="m277.27,323.48c23.11-22.43,46.22-44.85,70.65-68.56v43.43h74.04c-2.27,8.85-3.89,16.66-6.47,24.14-.61,1.78-4.41,3.43-6.78,3.47-17.27.3-34.54.18-51.81.18-2.47,0-4.93,0-7.66,0-.44,1.68-1.01,2.82-.99,3.96.4,35.54.38,71.08,1.45,106.6.97,32.5,24.2,39.17,46.8,31.47,10.7-3.65,20.47-10,30.79-15.2,0,.35.41,1.67-.06,2.49-14.5,25.41-35.12,42.52-65.2,44.42-27.35,1.72-45.64-15.5-46.91-44.17-1.13-25.48-.55-51.05-.66-76.57-.07-15.52-.17-31.04.08-46.56.08-4.91-1.56-6.65-6.46-6.52-9.7.27-19.42.08-29.13.08-.55-.89-1.1-1.77-1.65-2.66Z"/>
</svg>