<?xml version="1.0" encoding="UTF-8"?>
<svg id="Layer_1" data-name="Layer 1" xmlns="http://www.w3.org/2000/svg" viewBox="0 0 500 500">
  <path d="m250.98,166.05c2.81.33,5.63.6,8.43,1.01,17.5,2.58,32.69,9.99,45.51,22.12,12.35,11.68,20.66,25.82,24.11,42.45,6.07,29.29-1.14,55.13-21.77,76.89-12.36,13.04-27.68,21.14-45.41,24.09-25.76,4.29-48.98-1.79-69.06-18.6-15.34-12.85-24.99-29.31-28.33-49.01-4.67-27.54,2.49-51.92,21.54-72.49,12.93-13.96,29.06-22.21,47.81-25.36,2.53-.42,5.11-.53,7.67-.8.59-.06,1.18-.21,1.77-.31,2.58,0,5.15,0,7.73,0Z"/>
  <path d="m499.92,249.99c0,23.54,0,47.08,0,70.62,0,4.87-3.2,8.19-8.09,8.41-.34.01-.67,0-1.01,0-46.58,0-93.16,0-139.74,0-4.57,0-7.65-2.03-8.75-5.83-.21-.73-.28-1.54-.28-2.31-.01-47.19-.01-94.38-.01-141.57,0-4.79,3.41-8.19,8.27-8.19,25.7,0,51.4,0,77.09,0,21.16,0,42.33.09,63.49-.07,4.71-.04,9.17,3.22,9.12,9.17-.21,23.26-.08,46.52-.08,69.78Z"/>
  <path d="m89.58,328.43c-28.21,0-56.43,0-84.64,0-4.46,0-6.2-3-3.96-6.87,24.86-43.02,49.72-86.04,74.58-129.06,3.38-5.85,6.95-11.6,10.07-17.58,1.81-3.46,6-3.72,8.11-.05,25.03,43.5,50.18,86.93,75.29,130.38,3.18,5.51,6.25,11.09,9.6,16.5,1.9,3.06,0,6.78-3.9,6.76-28.38-.14-56.76-.08-85.15-.08Z"/>
</svg>