<?xml version="1.0" encoding="UTF-8"?>
<svg id="Layer_1" data-name="Layer 1" xmlns="http://www.w3.org/2000/svg" viewBox="0 0 1000.19 375.6">
  <path d="m502.15,19.84c5.63.67,11.27,1.2,16.87,2.03,35.02,5.16,65.4,19.98,91.06,44.26,24.71,23.38,41.34,51.67,48.24,84.94,12.14,58.61-2.28,110.3-43.55,153.84-24.73,26.1-55.39,42.29-90.86,48.2-51.53,8.58-98.01-3.58-138.17-37.22-30.68-25.7-50.01-58.63-56.69-98.05-9.34-55.11,4.97-103.88,43.09-145.04,25.86-27.93,58.15-44.44,95.66-50.74,5.06-.85,10.22-1.05,15.34-1.6,1.19-.13,2.36-.41,3.54-.63,5.15,0,10.31,0,15.46,0Z"/>
  <path d="m1000.22,187.77c0,47.1,0,94.19,0,141.29,0,9.74-6.4,16.39-16.19,16.82-.67.03-1.34,0-2.02,0-93.2,0-186.39,0-279.59,0-9.14,0-15.3-4.06-17.51-11.66-.43-1.47-.56-3.07-.56-4.62-.03-94.42-.02-188.83-.02-283.25,0-9.59,6.83-16.39,16.54-16.39,51.42-.02,102.83,0,154.25,0,42.34,0,84.69.19,127.02-.15,9.43-.07,18.35,6.44,18.25,18.34-.41,46.53-.17,93.07-.17,139.61Z"/>
  <path d="m179.23,344.73c-56.45,0-112.9,0-169.35,0-8.92,0-12.41-6-7.92-13.75C51.68,244.9,101.43,158.83,151.17,72.76c6.76-11.7,13.9-23.21,20.15-35.18,3.62-6.93,12-7.44,16.22-.11,50.08,87.03,100.39,173.93,150.64,260.87,6.37,11.02,12.5,22.2,19.21,33.01,3.8,6.12.01,13.57-7.81,13.53-56.79-.29-113.57-.16-170.36-.16Z"/>
</svg>