<?xml version="1.0" encoding="UTF-8"?>
<svg id="Layer_1" data-name="Layer 1" xmlns="http://www.w3.org/2000/svg" viewBox="0 0 595.28 420.94">
  <path d="m298.64,148.7c2.1.25,4.22.45,6.31.76,13.1,1.93,24.46,7.47,34.06,16.56,9.24,8.74,15.46,19.32,18.04,31.77,4.54,21.92-.85,41.25-16.29,57.54-9.25,9.76-20.72,15.82-33.98,18.03-19.27,3.21-36.66-1.34-51.68-13.92-11.48-9.61-18.7-21.93-21.2-36.67-3.49-20.61,1.86-38.85,16.12-54.25,9.67-10.44,21.75-16.62,35.78-18.98,1.89-.32,3.82-.39,5.74-.6.44-.05.88-.15,1.32-.23,1.93,0,3.85,0,5.78,0Z"/>
  <path d="m484.93,211.51c0,17.62,0,35.23,0,52.85,0,3.64-2.39,6.13-6.06,6.29-.25.01-.5,0-.75,0-34.86,0-69.72,0-104.57,0-3.42,0-5.72-1.52-6.55-4.36-.16-.55-.21-1.15-.21-1.73,0-35.31,0-70.63,0-105.94,0-3.59,2.55-6.13,6.19-6.13,19.23,0,38.46,0,57.69,0,15.84,0,31.67.07,47.51-.05,3.53-.03,6.87,2.41,6.83,6.86-.15,17.4-.06,34.81-.06,52.22Z"/>
  <path d="m177.86,270.21c-21.11,0-42.23,0-63.34,0-3.34,0-4.64-2.24-2.96-5.14,18.6-32.19,37.21-64.39,55.81-96.58,2.53-4.38,5.2-8.68,7.54-13.16,1.35-2.59,4.49-2.78,6.07-.04,18.73,32.55,37.55,65.05,56.34,97.57,2.38,4.12,4.67,8.3,7.19,12.35,1.42,2.29,0,5.08-2.92,5.06-21.24-.11-42.48-.06-63.72-.06Z"/>
</svg>