<?xml version="1.0" encoding="UTF-8"?>
<svg id="Layer_1" data-name="Layer 1" xmlns="http://www.w3.org/2000/svg" viewBox="0 0 595.28 420.94">
  <path d="m181.6,213.38c-.62,15.22-8.45,28.85-23.57,38.22-8.15,5.05-17.14,7.34-26.67,6.98-21.44-.81-39.5-14.4-45.46-34.68-3.87-13.19-2.22-25.9,5.01-37.65,7.85-12.77,19.32-20.66,34.11-22.76,19.87-2.82,36.17,3.93,48.01,20.33,6.14,8.51,8.57,17.08,8.56,29.56Zm-76.91,5.02c-.59,2.81.03,5.23,1.18,7.49,3.34,6.56,8.91,9.46,16.11,9.5,7.67.04,15.35-.03,23.02.01,3.5.02,6.29-1.32,8.35-4.08,1.58-2.12,3.09-4.31,4.47-6.57,1.21-1.98,2.86-3.35,4.89-4.38,2.43-1.23,2.68-1.97,1.64-4.95-.72.17-1.48.33-2.22.54-3.58,1.02-7.15,2.12-10.75,3.06-1.59.41-2.9,1.06-3.95,2.36-2.7,3.32-6.29,3.09-10.03,2.55v-4.68c.7-.08,1.27-.25,1.81-.17,1.74.24,3.09-.43,4.15-1.71,1.6-1.93,3.25-3.83,4.67-5.88,2.35-3.4,2.22-6.94.33-10.57-1.83-3.5-4.3-6.48-7.37-8.86-2.5-1.94-4.31-3.87-3.84-7.39.24-1.81-1.35-2.99-3.01-2.89-1.54.09-2.47,1.21-2.58,3.13-.05.82-.09,1.64-.15,2.59-2.54-.61-4.79-1.16-7.42-1.79.33.9.48,1.35.66,1.78,1.29,3.11,2.74,6.16,3.86,9.33,1.97,5.58,2.1,11.1-1.2,16.33-.88,1.39-1.76,2.78-2.61,4.2-.23.39-.33.85-.64,1.68h7.21v5.07c-2.58,0-5.01.12-7.43-.04-2.08-.14-3.64-1.75-4.12-3.84-.12-.55-.18-1.11-.29-1.84h-14.74Zm16.83-26.38c-2.3,2.27-13.12,19.34-13.3,20.99,4.3,0,8.59.05,12.87-.06.52-.01,1.16-.75,1.52-1.29,2.42-3.66,3.24-7.56,1.89-11.87-.81-2.58-1.56-5.17-2.97-7.78Z"/>
  <path d="m205.16,210.84c.02-11.23,7.92-20.5,19.05-22.38,7.23-1.23,14.05-.22,20.05,4.14,7.09,5.15,10.16,12.34,9.16,20.98-1.09,9.44-6.51,15.74-15.4,18.87-10.51,3.7-22.08.37-28.5-7.97-3.08-4-4.49-8.58-4.37-13.63Zm24.23,12.89c7.35,0,12.32-5.17,12.32-12.83,0-7.67-4.94-12.83-12.3-12.83-7.53,0-12.34,4.94-12.37,12.7-.03,7.91,4.78,12.96,12.34,12.96Z"/>
  <path d="m271.39,229.16v14.66h-11.53v-45.87h11.4c.07,1.38.13,2.62.2,3.98.34-.17.54-.23.69-.35,8.86-7.67,21.29-5.01,25.69,5.79,2.81,6.9,2.26,13.77-2.03,20.09-5.39,7.93-17.99,8.44-23.63,2.2-.13-.14-.33-.21-.8-.5Zm16.11-13.59c0-5.05-3.19-8.49-7.93-8.52-4.94-.03-8.23,3.34-8.24,8.43-.01,5.14,3.26,8.67,8.05,8.69,4.79.02,8.11-3.5,8.12-8.61Z"/>
  <path d="m499.75,201.86c.07-1.37.14-2.56.21-3.9h11.43v35.31h-11.41c-.08-1.33-.16-2.57-.22-3.56-2.3,1.22-4.46,2.93-6.91,3.56-10.7,2.75-18.91-3.88-20.61-13.48-1.02-5.77-.33-11.29,3.25-16.17,6.02-8.22,18.42-8.1,23.65-2.05.08.09.24.12.6.29Zm.04,13.82c0-.43.02-.86,0-1.29-.22-3.34-2.5-6.23-5.62-7.13-3.29-.95-6.86.24-8.83,2.94-2.27,3.11-1.97,8.84.71,11.61.73.75,1.68,1.39,2.65,1.78,5.69,2.25,11.07-1.61,11.1-7.9Z"/>
  <path d="m425.41,201.38h-12.29c-1.68-3.77-4.03-5.1-7.38-4.2-1.4.38-2.47,1.12-2.75,2.67-.29,1.61-.02,3.1,1.49,3.93,1.62.89,3.35,1.62,5.08,2.28,2.81,1.07,5.71,1.9,8.48,3.06,4.59,1.93,7.9,5.04,8,10.4.1,5.44-2.29,9.68-7.21,11.99-7.96,3.75-15.89,3.37-23.31-1.49-3.41-2.23-5.13-5.64-5.11-10.01h12.06c.14.23.32.41.35.6.58,3.93,4.94,5.15,8.55,3.78,2.68-1.02,3.32-4.54,1.05-6.29-1.38-1.06-3.11-1.74-4.77-2.36-3.28-1.23-6.71-2.11-9.92-3.5-5.95-2.56-8.49-8.03-6.89-14.29,1.02-4,3.73-6.65,7.4-8.12,6.68-2.68,13.46-2.72,20.01.5,4.45,2.18,6.87,5.84,7.16,11.05Z"/>
  <path d="m468.09,218.31h-25.62c.07,3.03,1.39,4.99,3.9,5.98,2.58,1.02,6.07.56,7.59-1.32.99-1.22,2.04-1.54,3.5-1.5,3.21.09,6.43.03,9.81.03-.09,2.1-1.13,3.63-2.18,5.11-2.24,3.14-5.29,5.25-8.97,6.33-5.11,1.5-10.23,1.38-15.16-.72-7.42-3.15-10.73-10.1-10.36-17.71.18-3.77,1.14-7.34,3.55-10.41,4.15-5.26,9.84-7.02,16.19-6.85,6.32.17,11.8,2.37,15.35,7.99,2.47,3.91,3.13,8.21,2.41,13.07Zm-11.99-6.39c.13-3.46-2.55-5.71-6.6-5.7-4.03,0-6.88,2.39-6.77,5.7h13.37Z"/>
  <path d="m315,218.18c-.41,3.88,2.62,6.77,6.63,6.65,2.09-.06,3.93-.68,5.27-2.44.3-.4.88-.83,1.34-.84,3.65-.04,7.31.01,10.96.05.11,0,.22.15.43.3-.73,3.08-2.52,5.53-4.87,7.59-7.17,6.29-20.08,5.87-26.82-.86-4.62-4.61-5.63-10.34-4.77-16.5,1.4-10.02,9.79-15.31,19.94-14.86,4.33.19,8.37,1.37,11.7,4.26,4.99,4.33,6.39,9.95,5.62,16.65h-25.44Zm13.6-6.28c-.42-3.78-2.95-5.76-7.07-5.67-3.76.08-6.39,2.32-6.57,5.67h13.64Z"/>
  <path d="m346.67,197.97h11.4c.09,1.14.17,2.25.28,3.74.73-.56,1.29-1.01,1.86-1.45,5.6-4.35,17.22-4.39,21.82,4,1.35,2.47,1.85,5.13,1.9,7.86.1,6.52.04,13.05.03,19.57,0,.48-.15.96-.24,1.57h-11.3c-.04-.9-.11-1.67-.11-2.43-.01-5.66.05-11.33-.04-16.99-.09-5.35-4.35-8.35-9.44-6.77-2.87.89-4.54,3.16-4.58,6.53-.06,5.73-.02,11.47-.03,17.21,0,.77-.06,1.53-.1,2.45h-11.45v-35.28Z"/>
</svg>