<?xml version="1.0" encoding="UTF-8"?>
<svg id="Layer_1" data-name="Layer 1" xmlns="http://www.w3.org/2000/svg" viewBox="0 0 1000.19 375.6">
  <path d="m228.68,194.65c-1.45,35.62-19.78,67.51-55.14,89.43-19.07,11.82-40.12,17.18-62.41,16.34-50.17-1.89-92.43-33.71-106.37-81.15-9.07-30.87-5.19-60.6,11.72-88.1,18.37-29.87,45.2-48.35,79.82-53.25,46.5-6.59,84.65,9.19,112.35,47.57,14.37,19.91,20.06,39.97,20.04,69.17Zm-179.97,11.74c-1.38,6.58.06,12.23,2.76,17.52,7.81,15.36,20.86,22.14,37.69,22.23,17.96.09,35.92-.08,53.87.03,8.18.05,14.72-3.08,19.54-9.54,3.7-4.97,7.24-10.09,10.47-15.38,2.83-4.64,6.7-7.84,11.44-10.24,5.69-2.88,6.28-4.61,3.84-11.57-1.69.41-3.46.77-5.19,1.26-8.39,2.39-16.73,4.96-25.16,7.16-3.72.97-6.78,2.48-9.25,5.52-6.31,7.78-14.73,7.23-23.47,5.97v-10.96c1.64-.18,2.97-.58,4.23-.41,4.07.55,7.23-1,9.72-4,3.74-4.51,7.6-8.95,10.92-13.76,5.49-7.95,5.2-16.24.78-24.73-4.27-8.19-10.07-15.16-17.25-20.73-5.86-4.55-10.08-9.06-8.99-17.3.56-4.23-3.16-7-7.05-6.76-3.61.22-5.77,2.84-6.05,7.33-.12,1.92-.22,3.83-.35,6.07-5.95-1.43-11.21-2.7-17.36-4.18.78,2.11,1.13,3.16,1.55,4.18,3.03,7.27,6.42,14.41,9.04,21.82,4.61,13.05,4.92,25.98-2.81,38.22-2.06,3.26-4.12,6.52-6.1,9.82-.54.91-.78,1.99-1.51,3.94h16.88v11.87c-6.04,0-11.73.29-17.38-.09-4.87-.32-8.52-4.09-9.63-8.99-.29-1.28-.42-2.6-.69-4.31h-34.49Zm39.38-61.72c-5.38,5.32-30.7,45.26-31.13,49.13,10.07,0,20.09.11,30.11-.14,1.23-.03,2.72-1.74,3.56-3.02,5.65-8.56,7.58-17.68,4.41-27.77-1.9-6.05-3.65-12.09-6.95-18.19Z"/>
  <path d="m283.8,188.7c.05-26.27,18.54-47.96,44.57-52.37,16.92-2.87,32.89-.51,46.93,9.69,16.59,12.05,23.78,28.87,21.43,49.08-2.56,22.08-15.23,36.83-36.03,44.15-24.59,8.65-51.66.88-66.68-18.65-7.21-9.37-10.52-20.08-10.23-31.9Zm56.7,30.15c17.21,0,28.82-12.1,28.84-30.01.02-17.95-11.55-30.02-28.79-30.02-17.62,0-28.87,11.56-28.93,29.72-.06,18.52,11.19,30.33,28.88,30.32Z"/>
  <path d="m438.78,231.59v34.3h-26.97v-107.33h26.68c.16,3.22.31,6.13.47,9.32.79-.4,1.27-.54,1.61-.83,20.73-17.96,49.81-11.71,60.1,13.54,6.58,16.14,5.29,32.23-4.74,47-12.6,18.55-42.1,19.76-55.28,5.16-.3-.33-.78-.5-1.87-1.17Zm37.69-31.81c.01-11.82-7.46-19.86-18.55-19.94-11.55-.08-19.25,7.8-19.28,19.73-.03,12.02,7.62,20.29,18.84,20.34,11.2.06,18.98-8.2,19-20.14Z"/>
  <path d="m973.13,167.7c.17-3.21.33-6,.5-9.12h26.76v82.61h-26.71c-.19-3.1-.37-6.01-.52-8.34-5.37,2.85-10.44,6.87-16.16,8.34-25.04,6.43-44.24-9.09-48.22-31.53-2.4-13.51-.76-26.42,7.61-37.84,14.09-19.23,43.1-18.95,55.33-4.79.19.22.56.28,1.41.68Zm.08,32.34c0-1.01.06-2.02,0-3.02-.5-7.81-5.84-14.57-13.15-16.68-7.69-2.22-16.06.56-20.66,6.87-5.31,7.28-4.61,20.68,1.67,27.16,1.7,1.75,3.92,3.26,6.19,4.16,13.31,5.26,25.91-3.76,25.96-18.49Z"/>
  <path d="m799.18,166.57h-28.77c-3.94-8.83-9.44-11.93-17.26-9.84-3.29.88-5.77,2.63-6.43,6.25-.68,3.78-.05,7.26,3.49,9.2,3.8,2.08,7.83,3.79,11.88,5.33,6.57,2.51,13.37,4.45,19.85,7.17,10.75,4.51,18.48,11.79,18.72,24.34.24,12.74-5.36,22.64-16.88,28.06-18.63,8.78-37.19,7.88-54.55-3.5-7.97-5.22-12.01-13.2-11.95-23.41h28.21c.33.55.76.95.82,1.4,1.36,9.2,11.57,12.05,20.01,8.83,6.27-2.39,7.78-10.63,2.46-14.72-3.23-2.49-7.28-4.06-11.16-5.52-7.68-2.89-15.69-4.95-23.21-8.18-13.93-6-19.87-18.78-16.13-33.43,2.39-9.36,8.73-15.57,17.31-19.01,15.64-6.27,31.49-6.36,46.81,1.16,10.4,5.11,16.08,13.67,16.76,25.86Z"/>
  <path d="m899.05,206.2h-59.95c.16,7.09,3.25,11.67,9.12,14,6.04,2.39,14.21,1.3,17.76-3.09,2.31-2.85,4.77-3.6,8.18-3.5,7.52.2,15.04.06,22.95.06-.22,4.91-2.64,8.5-5.11,11.96-5.25,7.35-12.37,12.29-20.99,14.82-11.97,3.51-23.93,3.22-35.46-1.68-17.36-7.38-25.1-23.63-24.23-41.45.43-8.83,2.66-17.18,8.31-24.35,9.71-12.3,23.01-16.43,37.87-16.02,14.79.41,27.62,5.55,35.92,18.69,5.79,9.15,7.32,19.2,5.63,30.57Zm-28.05-14.95c.31-8.09-5.96-13.35-15.43-13.33-9.43.02-16.1,5.6-15.85,13.33h31.28Z"/>
  <path d="m540.82,205.89c-.96,9.09,6.13,15.84,15.52,15.56,4.89-.14,9.2-1.58,12.33-5.71.71-.93,2.06-1.94,3.13-1.95,8.55-.1,17.1.02,25.65.11.26,0,.53.35,1.01.7-1.71,7.21-5.9,12.94-11.39,17.76-16.79,14.72-46.98,13.74-62.75-2-10.8-10.78-13.17-24.2-11.15-38.6,3.28-23.45,22.9-35.83,46.65-34.78,10.13.45,19.58,3.19,27.37,9.97,11.67,10.14,14.95,23.29,13.16,38.95h-59.53Zm31.83-14.69c-.98-8.85-6.9-13.47-16.55-13.26-8.81.19-14.95,5.44-15.36,13.26h31.91Z"/>
  <path d="m614.92,158.6h26.69c.2,2.66.4,5.26.66,8.75,1.7-1.32,3.03-2.36,4.36-3.39,13.1-10.18,40.3-10.28,51.05,9.37,3.16,5.78,4.34,12.01,4.44,18.38.23,15.26.1,30.53.08,45.8,0,1.13-.34,2.26-.57,3.66h-26.45c-.1-2.11-.25-3.9-.26-5.7-.03-13.25.12-26.51-.09-39.76-.21-12.52-10.19-19.54-22.08-15.84-6.72,2.09-10.63,7.4-10.71,15.28-.14,13.42-.04,26.84-.07,40.26,0,1.8-.15,3.59-.25,5.74h-26.8v-82.55Z"/>
</svg>