<?xml version="1.0" encoding="UTF-8"?>
<svg id="Layer_1" data-name="Layer 1" xmlns="http://www.w3.org/2000/svg" viewBox="0 0 500 500">
  <path d="m500,263.49c-3.18,77.88-43.26,147.61-120.57,195.53-41.69,25.84-87.71,37.56-136.45,35.72-109.7-4.14-202.1-73.7-232.57-177.44C-9.41,249.82-.95,184.81,36.03,124.68,76.19,59.37,134.85,18.98,210.54,8.25c101.66-14.4,185.07,20.09,245.65,104,31.42,43.53,43.86,87.39,43.81,151.23Zm-393.5,25.68c-3.02,14.39.14,26.74,6.03,38.31,17.08,33.57,45.6,48.41,82.4,48.6,39.26.2,78.53-.17,117.79.07,17.89.11,32.19-6.73,42.72-20.86,8.1-10.86,15.82-22.06,22.89-33.62,6.19-10.14,14.66-17.15,25.01-22.4,12.43-6.3,13.72-10.07,8.4-25.3-3.7.89-7.57,1.69-11.35,2.77-18.34,5.23-36.57,10.85-55.02,15.65-8.14,2.12-14.83,5.42-20.21,12.06-13.79,17-32.2,15.82-51.32,13.06v-23.96c3.59-.39,6.5-1.27,9.24-.89,8.89,1.21,15.81-2.19,21.25-8.74,8.18-9.85,16.62-19.57,23.88-30.09,12.01-17.39,11.38-35.52,1.7-54.06-9.34-17.91-22.01-33.14-37.71-45.34-12.8-9.94-22.04-19.81-19.65-37.82,1.22-9.24-6.92-15.31-15.41-14.79-7.89.48-12.62,6.21-13.22,16.03-.26,4.19-.48,8.38-.77,13.26-13.01-3.13-24.52-5.91-37.95-9.15,1.71,4.62,2.46,6.91,3.39,9.13,6.62,15.89,14.03,31.5,19.76,47.71,10.09,28.54,10.76,56.8-6.14,83.57-4.5,7.13-9.02,14.25-13.34,21.48-1.18,1.98-1.7,4.36-3.3,8.61h36.9v25.95c-13.2,0-25.65.63-38.01-.19-10.64-.7-18.63-8.95-21.05-19.65-.63-2.81-.92-5.69-1.51-9.42h-75.41Zm86.09-134.94c-11.76,11.62-67.13,98.96-68.06,107.41,22.02,0,43.93.23,65.83-.3,2.68-.07,5.94-3.81,7.79-6.61,12.36-18.72,16.58-38.66,9.65-60.72-4.15-13.22-7.99-26.43-15.2-39.78Z"/>
</svg>