<?xml version="1.0" encoding="UTF-8"?>
<svg id="Layer_1" data-name="Layer 1" xmlns="http://www.w3.org/2000/svg" viewBox="0 0 500 500">
  <path d="m348.7,123.77c-1.07,0-2.15,0-3.22,0-49.64,0-99.27.01-148.91-.08-3.11,0-4.19.74-4.18,4.01.09,51.47.04,102.95.08,154.42,0,8.58,1.53,16.9,4.98,24.82,6.29,14.44,19.04,21.35,34.62,18.75,7.71-1.29,14.95-3.87,21.71-7.79,1.4-.81,2.81-1.6,4.53-2.58,0,6.18.37,11.91-.11,17.56-.43,4.97-3.99,8.12-8.1,10.69-14.16,8.84-29.63,11.58-46.05,10.25-14.71-1.19-28.46-5.11-40.39-14.12-16-12.09-24.07-28.69-26.87-48.13-.67-4.68-.93-9.46-.94-14.19-.06-49.71-.04-99.41-.04-149.12,0-4.48-.01-4.49-4.59-4.48-18.79.01-37.59.04-56.38.03-4.37,0-4.36-.06-4.36-4.4,0-7.18-.03-14.36,0-21.54.01-4.1.52-4.61,4.58-4.62,18.79-.02,37.59-.06,56.38.04,2.87.02,4.05-.55,4.01-3.78-.18-13.47-.04-26.95-.08-40.43-.03-12.22-7.82-19.85-20.03-19.73q-4.4.04-4.41-4.32c-.03-8.3-.02-8.22,8.02-9.88,22.7-4.69,45.4-9.44,68.09-14.16,1.5-.31,3.01-.58,5.21-1,0,1.65,0,3.01,0,4.36,0,28.06,0,56.11,0,84.17q0,4.87,4.84,4.87c70.31,0,140.62-.02,210.93-.02,6.83,0,7.17.8,7.71,7.6.51,6.49-1.68,10.95-6.34,15.55-29.1,28.72-57.85,57.78-86.72,86.73-8.11,8.14-16.22,16.28-24.31,24.43-.68.69-1.27,1.46-2.21,2.55,1.39.62,2.44,1.14,3.52,1.56,25.68,10,49.8,22.84,71.56,39.84,18.29,14.29,33.97,30.9,44.72,51.73,12.22,23.68,15.25,48.56,9.98,74.59-4.26,21.05-12.51,40.19-26.58,56.62-15.18,17.73-34.46,29.08-56.5,36.08-21.6,6.85-43.85,8.97-66.39,8.74-21.2-.22-42.15-2.29-62.31-9.28-19.54-6.77-36.23-17.41-46.61-36.03-6.48-11.63-9.19-24.22-7.32-37.38,2.66-18.67,20.64-31.41,39.63-28.9,12.47,1.64,22.43,6.83,27.33,19.01,5.75,14.27,3.47,32-13.71,40.47-1.95.96-2.21,2.12-1.14,3.95,3.32,5.68,8.35,9.3,14.18,12.01,11.2,5.19,23.19,6.99,35.32,8.2,16.64,1.66,33.1,1.1,49.21-3.89,29.81-9.24,47.57-29.71,55.01-59.53,3.61-14.48,4.89-29.21,2.17-43.98-2.41-13.08-8.82-24.46-16.65-35.01-19.31-26.02-45.41-42.62-75.64-52.96-11.76-4.02-24.05-6.52-36.15-9.45-2.77-.67-3.77-1.64-3.67-4.53.25-7.06.04-14.14.29-21.2.06-1.56.86-3.45,1.96-4.56,25.32-25.61,50.73-51.13,76.11-76.69,10.74-10.82,21.45-21.67,32.17-32.51.84-.85,1.64-1.73,2.47-2.6-.12-.27-.24-.53-.36-.8Z"/>
</svg>