<?xml version="1.0" encoding="UTF-8"?>
<svg id="Layer_1" data-name="Layer 1" xmlns="http://www.w3.org/2000/svg" viewBox="0 0 1000.19 375.6">
  <path d="m192.98,100.45c-.75,0-1.49,0-2.24,0-34.43,0-68.85,0-103.28-.06-2.16,0-2.91.51-2.9,2.78.06,35.7.03,71.4.05,107.1,0,5.95,1.06,11.72,3.45,17.21,4.36,10.02,13.21,14.81,24.01,13,5.35-.89,10.37-2.69,15.06-5.4.97-.56,1.95-1.11,3.14-1.79,0,4.29.26,8.26-.08,12.18-.3,3.45-2.77,5.63-5.62,7.41-9.82,6.13-20.55,8.03-31.94,7.11-10.2-.82-19.74-3.55-28.02-9.79-11.1-8.38-16.69-19.9-18.64-33.38-.47-3.25-.64-6.56-.65-9.84-.04-34.47-.02-68.95-.03-103.42,0-3.11,0-3.11-3.19-3.11-13.03,0-26.07.03-39.1.02-3.03,0-3.02-.04-3.02-3.05,0-4.98-.02-9.96,0-14.94,0-2.84.36-3.2,3.18-3.2,13.03-.01,26.07-.04,39.1.03,1.99.01,2.81-.38,2.78-2.62-.13-9.34-.03-18.69-.05-28.04-.02-8.47-5.42-13.77-13.89-13.68q-3.05.03-3.06-3c-.02-5.76-.01-5.7,5.56-6.85,15.75-3.25,31.49-6.55,47.23-9.82,1.04-.22,2.09-.4,3.61-.69,0,1.14,0,2.08,0,3.02,0,19.46,0,38.92,0,58.38q0,3.38,3.36,3.38c48.76,0,97.53-.01,146.29-.02,4.74,0,4.98.55,5.35,5.27.36,4.5-1.17,7.6-4.4,10.78-20.18,19.92-40.13,40.07-60.15,60.15-5.63,5.64-11.25,11.29-16.86,16.95-.47.48-.88,1.01-1.54,1.77.97.43,1.69.79,2.44,1.09,17.81,6.94,34.54,15.84,49.63,27.63,12.69,9.91,23.56,21.43,31.02,35.88,8.48,16.42,10.58,33.68,6.92,51.74-2.95,14.6-8.68,27.88-18.44,39.27-10.53,12.3-23.9,20.17-39.19,25.02-14.98,4.75-30.41,6.22-46.04,6.06-14.7-.15-29.23-1.59-43.22-6.43-13.55-4.69-25.13-12.07-32.33-24.99-4.5-8.07-6.38-16.8-5.08-25.93,1.85-12.95,14.32-21.78,27.49-20.05,8.65,1.14,15.55,4.74,18.96,13.19,3.99,9.9,2.41,22.19-9.51,28.07-1.35.67-1.53,1.47-.79,2.74,2.3,3.94,5.79,6.45,9.83,8.33,7.77,3.6,16.09,4.85,24.5,5.68,11.54,1.15,22.96.76,34.13-2.7,20.68-6.41,33-20.61,38.15-41.29,2.5-10.04,3.39-20.26,1.5-30.51-1.67-9.07-6.12-16.96-11.55-24.28-13.4-18.04-31.5-29.56-52.46-36.73-8.15-2.79-16.68-4.52-25.08-6.55-1.92-.47-2.61-1.14-2.54-3.14.17-4.9.03-9.81.2-14.7.04-1.08.6-2.4,1.36-3.17,17.56-17.76,35.19-35.46,52.79-53.19,7.45-7.5,14.88-15.03,22.31-22.55.58-.59,1.14-1.2,1.71-1.8-.08-.18-.17-.37-.25-.55Z"/>
  <path d="m603.1,194.43h-95.47c.18,3.47.2,6.74.53,9.97,1.31,12.92,6.1,24.28,15.43,33.51,9.1,9,20.17,12.58,32.85,12.04,13.52-.58,24.52-5.99,33.12-16.36.44-.53.89-1.04,1.55-1.8,3.07,2.33,6.08,4.61,9.24,7.01-3.06,4.92-6.86,8.88-11.15,12.34-9.43,7.6-20.44,10.89-32.36,11.48-12.48.61-24.25-1.82-34.92-8.56-13.63-8.6-22.36-20.97-26.11-36.44-4.71-19.47-4.32-38.94,3.57-57.68,7.49-17.78,20.33-30.2,39.4-34.51,28.54-6.46,54.65,7.7,62.25,39.24,2.04,8.48,3.02,23.27,2.06,29.77Zm-94.75-13.04c1.28,0,1.96,0,2.64,0,24.83,0,49.66,0,74.49,0,.15,0,.31-.02.46,0,2.14.33,2.69-.78,2.48-2.66-.22-1.98-.29-3.97-.57-5.94-1.69-11.69-6.19-21.96-15.76-29.37-12.85-9.95-33.04-9.07-46.07,1.85-8.63,7.23-13.45,16.72-16.01,27.48-.65,2.72-1.07,5.5-1.66,8.64Z"/>
  <path d="m755.34,192.78c-.44-13.67,2.09-26.72,8.69-38.76,9.33-17.03,23.5-27.42,43.02-29.69,17.55-2.04,33.55,1.65,46.93,13.88,10.01,9.15,16.14,20.57,18.76,33.76,3.34,16.84,3.53,33.72-2.1,50.13-7.41,21.6-21.91,35.78-44.93,39.66-16.49,2.78-32.15.08-45.77-10.3-12.42-9.47-19.74-22.29-22.68-37.48-1.34-6.95-1.73-14.08-2.55-21.13.21-.02.42-.05.63-.07Zm104.5.12c.18-12.66-2.18-24.78-8.79-35.82-12.83-21.43-37.68-25.19-55.22-16.16-11.85,6.1-18.72,16.43-22.62,28.88-3.04,9.7-3.43,19.67-2.86,29.75.54,9.69,2.6,18.93,7.27,27.5,9.44,17.33,25.6,25.42,44.91,22.24,13.51-2.22,23.12-10.02,29.68-21.75,6.01-10.74,7.71-22.47,7.63-34.64Z"/>
  <path d="m999.52,163.95c-1.01.07-1.82.18-2.64.19-2.84.02-5.67,0-8.51.01-4.15,0-3.56.09-3.97-3.43-.99-8.43-5.96-14.26-12.96-18.5-7.9-4.79-16.6-5.98-25.66-5.32-7.23.53-14.01,2.38-19.94,6.79-11.31,8.4-11.31,26.96,2.62,33.83,8.11,4,16.79,6.14,25.43,8.53,7.96,2.2,15.93,4.52,23.61,7.5,8.15,3.16,15.22,8.21,19.24,16.28,7.16,14.37,4.37,34.43-13.35,44.91-8.11,4.79-16.93,7.11-26.2,7.73-10.87.72-21.63-.03-31.87-4.14-10.81-4.35-19.69-11.05-24.21-22.19-1.41-3.48-1.78-7.39-2.59-11.11-.4-1.83.42-2.43,2.24-2.37,3.52.11,7.05.12,10.58.03,1.53-.04,1.99.53,2.41,1.97,1.08,3.71,2.07,7.56,3.87,10.93,2.68,5.02,7.23,8.38,12.45,10.46,13.6,5.42,27.34,5.6,40.96.07,5.96-2.42,10.56-6.55,12.98-12.66,3.69-9.31.43-19.47-7.96-25.34-7.1-4.96-15.15-7.63-23.49-9.5-9.95-2.23-19.9-4.42-29.23-8.7-7.25-3.33-13.66-7.77-17.31-15.13-6.17-12.42-4.38-29.42,9.51-40.17,8.01-6.21,17.12-9.32,27.1-10.29,11.24-1.09,22.26-.2,32.67,4.34,12.96,5.64,21.75,14.91,23.95,29.4.16,1.05.22,2.13.28,3.19.04.83,0,1.66,0,2.7Z"/>
  <path d="m647.44,247.55h86.44v12.54c-.76.05-1.43.12-2.1.12-33.27,0-66.54,0-99.81,0-3.15,0-2.86-.04-3.21-3.11-.66-5.77,1.41-10.22,4.86-14.84,21.34-28.51,42.38-57.25,63.52-85.91,3.59-4.87,7.19-9.73,10.78-14.6.44-.6.85-1.23,1.54-2.26-1.32-.08-2.25-.2-3.18-.2-23.99,0-47.99,0-71.98,0q-3.17,0-3.18-3.06c0-3.21,0-6.42,0-9.83h97.4c0,3.63.04,7.2-.04,10.76-.01.54-.48,1.11-.83,1.59-20.08,27.16-40.16,54.32-60.25,81.48-6.24,8.44-12.47,16.88-18.7,25.33-.35.47-.63,1-1.25,1.98Z"/>
  <path d="m419.02,176.46c0-26.81,0-53.62,0-80.44,0-3.08,0-3.08-3.17-3.08-18.48,0-36.95,0-55.43,0-3.01,0-3.01-.01-3.01-3.04,0-2.6.06-5.21-.03-7.81-.05-1.52.56-2.07,2.02-2.01,1.3.06,2.61,0,3.91,0,43.24,0,86.48,0,129.73,0q3.08,0,3.1,2.99c0,2.45-.11,4.91.04,7.35.13,2.08-.72,2.6-2.68,2.58-10.66-.07-21.31-.03-31.97-.03-8.05,0-16.1,0-24.15,0q-3.14,0-3.14,3.11c0,53.16,0,106.33,0,159.49,0,4.89.52,4.4-4.45,4.44-2.53.02-5.06,0-7.59,0q-3.17,0-3.18-3.1c0-26.81,0-53.62,0-80.44Z"/>
</svg>