<?xml version="1.0" encoding="UTF-8"?>
<svg id="Layer_1" data-name="Layer 1" xmlns="http://www.w3.org/2000/svg" viewBox="0 0 595.28 420.94">
  <path d="m184.15,179.86c-.26,0-.53,0-.79,0-12.17,0-24.35,0-36.52-.02-.76,0-1.03.18-1.03.98.02,12.62,0,25.25.02,37.87,0,2.1.38,4.15,1.22,6.09,1.54,3.54,4.67,5.24,8.49,4.6,1.89-.32,3.67-.95,5.32-1.91.34-.2.69-.39,1.11-.63,0,1.52.09,2.92-.03,4.31-.1,1.22-.98,1.99-1.99,2.62-3.47,2.17-7.27,2.84-11.29,2.51-3.61-.29-6.98-1.25-9.91-3.46-3.92-2.96-5.9-7.04-6.59-11.8-.17-1.15-.23-2.32-.23-3.48-.02-12.19,0-24.38,0-36.57,0-1.1,0-1.1-1.13-1.1-4.61,0-9.22.01-13.83,0-1.07,0-1.07-.01-1.07-1.08,0-1.76,0-3.52,0-5.28,0-1,.13-1.13,1.12-1.13,4.61,0,9.22-.02,13.83,0,.7,0,.99-.13.98-.93-.05-3.3-.01-6.61-.02-9.91,0-3-1.92-4.87-4.91-4.84q-1.08.01-1.08-1.06c0-2.04,0-2.02,1.97-2.42,5.57-1.15,11.13-2.31,16.7-3.47.37-.08.74-.14,1.28-.24,0,.4,0,.74,0,1.07,0,6.88,0,13.76,0,20.64q0,1.19,1.19,1.2c17.24,0,34.49,0,51.73,0,1.67,0,1.76.2,1.89,1.86.13,1.59-.41,2.69-1.55,3.81-7.14,7.04-14.19,14.17-21.27,21.27-1.99,2-3.98,3.99-5.96,5.99-.17.17-.31.36-.54.63.34.15.6.28.86.38,6.3,2.45,12.21,5.6,17.55,9.77,4.49,3.5,8.33,7.58,10.97,12.69,3,5.81,3.74,11.91,2.45,18.29-1.04,5.16-3.07,9.86-6.52,13.89-3.72,4.35-8.45,7.13-13.86,8.85-5.3,1.68-10.75,2.2-16.28,2.14-5.2-.05-10.34-.56-15.28-2.28-4.79-1.66-8.89-4.27-11.43-8.84-1.59-2.85-2.25-5.94-1.79-9.17.65-4.58,5.06-7.7,9.72-7.09,3.06.4,5.5,1.67,6.7,4.66,1.41,3.5.85,7.85-3.36,9.93-.48.24-.54.52-.28.97.81,1.39,2.05,2.28,3.48,2.94,2.75,1.27,5.69,1.71,8.66,2.01,4.08.41,8.12.27,12.07-.95,7.31-2.27,11.67-7.29,13.49-14.6.89-3.55,1.2-7.16.53-10.79-.59-3.21-2.16-6-4.08-8.59-4.74-6.38-11.14-10.45-18.55-12.99-2.88-.99-5.9-1.6-8.87-2.32-.68-.16-.92-.4-.9-1.11.06-1.73.01-3.47.07-5.2.01-.38.21-.85.48-1.12,6.21-6.28,12.44-12.54,18.67-18.81,2.63-2.65,5.26-5.31,7.89-7.97.21-.21.4-.42.6-.64-.03-.07-.06-.13-.09-.2Z"/>
  <path d="m329.17,213.09h-33.76c.06,1.23.07,2.38.19,3.52.46,4.57,2.16,8.59,5.46,11.85,3.22,3.18,7.13,4.45,11.62,4.26,4.78-.2,8.67-2.12,11.71-5.79.15-.19.31-.37.55-.64,1.08.82,2.15,1.63,3.27,2.48-1.08,1.74-2.42,3.14-3.94,4.36-3.33,2.69-7.23,3.85-11.44,4.06-4.41.22-8.57-.64-12.35-3.03-4.82-3.04-7.91-7.42-9.23-12.88-1.67-6.89-1.53-13.77,1.26-20.4,2.65-6.29,7.19-10.68,13.93-12.2,10.09-2.28,19.32,2.72,22.01,13.88.72,3,1.07,8.23.73,10.53Zm-33.5-4.61c.45,0,.69,0,.93,0,8.78,0,17.56,0,26.34,0,.05,0,.11,0,.16,0,.76.12.95-.28.88-.94-.08-.7-.1-1.4-.2-2.1-.6-4.13-2.19-7.77-5.57-10.39-4.54-3.52-11.68-3.21-16.29.66-3.05,2.56-4.76,5.91-5.66,9.72-.23.96-.38,1.95-.59,3.06Z"/>
  <path d="m383,212.5c-.15-4.83.74-9.45,3.07-13.7,3.3-6.02,8.31-9.7,15.21-10.5,6.2-.72,11.86.58,16.59,4.91,3.54,3.24,5.71,7.27,6.63,11.94,1.18,5.95,1.25,11.92-.74,17.73-2.62,7.64-7.75,12.65-15.89,14.02-5.83.98-11.37.03-16.18-3.64-4.39-3.35-6.98-7.88-8.02-13.25-.48-2.46-.61-4.98-.9-7.47.07,0,.15-.02.22-.02Zm36.95.04c.06-4.48-.77-8.76-3.11-12.66-4.54-7.58-13.32-8.91-19.53-5.72-4.19,2.16-6.62,5.81-8,10.21-1.08,3.43-1.21,6.95-1.01,10.52.19,3.43.92,6.69,2.57,9.72,3.34,6.13,9.05,8.99,15.88,7.87,4.78-.79,8.17-3.54,10.5-7.69,2.12-3.8,2.73-7.95,2.7-12.25Z"/>
  <path d="m469.34,202.31c-.36.03-.64.06-.93.07-1,0-2.01,0-3.01,0-1.47,0-1.26.03-1.41-1.21-.35-2.98-2.11-5.04-4.58-6.54-2.79-1.69-5.87-2.12-9.07-1.88-2.56.19-4.95.84-7.05,2.4-4,2.97-4,9.53.93,11.96,2.87,1.42,5.94,2.17,8.99,3.02,2.81.78,5.63,1.6,8.35,2.65,2.88,1.12,5.38,2.9,6.8,5.76,2.53,5.08,1.55,12.18-4.72,15.88-2.87,1.7-5.99,2.52-9.27,2.73-3.84.25-7.65-.01-11.27-1.46-3.82-1.54-6.96-3.91-8.56-7.84-.5-1.23-.63-2.61-.92-3.93-.14-.65.15-.86.79-.84,1.25.04,2.49.04,3.74,0,.54-.01.7.19.85.7.38,1.31.73,2.67,1.37,3.87.95,1.77,2.56,2.96,4.4,3.7,4.81,1.92,9.67,1.98,14.48.02,2.11-.86,3.73-2.32,4.59-4.48,1.31-3.29.15-6.89-2.81-8.96-2.51-1.76-5.36-2.7-8.31-3.36-3.52-.79-7.04-1.56-10.34-3.08-2.57-1.18-4.83-2.75-6.12-5.35-2.18-4.39-1.55-10.4,3.36-14.2,2.83-2.19,6.05-3.3,9.58-3.64,3.98-.39,7.87-.07,11.55,1.53,4.58,2,7.69,5.27,8.47,10.4.06.37.08.75.1,1.13.02.29,0,.59,0,.95Z"/>
  <path d="m344.84,231.87h30.56v4.44c-.27.02-.5.04-.74.04-11.76,0-23.53,0-35.29,0-1.11,0-1.01-.01-1.14-1.1-.23-2.04.5-3.62,1.72-5.25,7.55-10.08,14.98-20.24,22.46-30.38,1.27-1.72,2.54-3.44,3.81-5.16.16-.21.3-.44.55-.8-.47-.03-.8-.07-1.13-.07-8.48,0-16.97,0-25.45,0q-1.12,0-1.12-1.08c0-1.13,0-2.27,0-3.48h34.44c0,1.28.01,2.54-.01,3.8,0,.19-.17.39-.29.56-7.1,9.61-14.2,19.21-21.3,28.81-2.21,2.98-4.41,5.97-6.61,8.96-.12.17-.22.35-.44.7Z"/>
  <path d="m264.08,206.73c0-9.48,0-18.96,0-28.44,0-1.09,0-1.09-1.12-1.09-6.53,0-13.07,0-19.6,0-1.06,0-1.06,0-1.06-1.08,0-.92.02-1.84,0-2.76-.02-.54.2-.73.71-.71.46.02.92,0,1.38,0,15.29,0,30.58,0,45.87,0q1.09,0,1.1,1.06c0,.87-.04,1.74.01,2.6.05.74-.26.92-.95.91-3.77-.03-7.54-.01-11.3-.01-2.85,0-5.69,0-8.54,0q-1.11,0-1.11,1.1c0,18.8,0,37.6,0,56.4,0,1.73.18,1.56-1.57,1.57-.89,0-1.79,0-2.68,0q-1.12,0-1.12-1.1c0-9.48,0-18.96,0-28.44Z"/>
</svg>