<?xml version="1.0" encoding="UTF-8"?>
<svg id="Layer_1" data-name="Layer 1" xmlns="http://www.w3.org/2000/svg" viewBox="0 0 424.14 491">
  <path d="m321.85,272.29c-2.29,19.36-7.74,37.31-17.24,53.87-12.44,21.69-30.69,36.26-54.61,43.75-15.86,4.96-32.04,5.69-48.41,4.04-16.92-1.7-32.68-7.03-46.62-16.84-22.21-15.62-34.42-36.85-34.13-64.37.32-30.54,15.09-52.62,40.99-67.77,13.2-7.73,27.59-12.17,42.65-14.38,19.26-2.83,38.62-2.31,57.95-.91,5.32.39,10.6,1.45,15.9,2.19.44.06.9,0,1.54,0-3.56-17.2-9.08-33.1-24.03-43.74-9.56-6.8-20.51-9.47-32.07-9.9-9.69-.37-19.35-.26-28.81,2.37-12.33,3.42-22.55,10.04-30.6,19.99-.97,1.2-1.84,3.27-2.93,3.4-1.23.14-2.69-1.42-4-2.31-9.65-6.57-19.29-13.16-28.93-19.74-.65-.44-1.26-.95-1.93-1.46,5.07-8.04,11.26-14.89,18.37-20.9,11.77-9.96,25.19-16.85,40.01-21.02,12.6-3.55,25.49-4.37,38.51-3.89,16.87.61,32.91,4.52,47.79,12.59,20.73,11.24,34.62,28.42,43.1,50.23,5.41,13.92,8.01,28.42,9.02,43.24.21,3.11,1.13,4.76,4.34,6.06,12.47,5.06,23.53,12.53,33.79,21.2,20.42,17.25,33.72,38.87,39.43,65.01,4.26,19.54,3.76,39.02-.83,58.5-6.77,28.76-22.6,51.85-44.01,71.6-19.19,17.71-41.41,30.16-66.16,38.12-15.36,4.94-31.2,7.72-47.29,8.63-12.92.73-25.9,1.39-38.82,1.08-16.15-.39-32.09-2.79-47.9-6.5-20.59-4.84-39.94-12.41-57.97-23.35-18.94-11.5-34.94-26.28-48.57-43.78-15.57-20-26.26-42.42-34.13-66.36-4.58-13.93-7.44-28.24-10.15-42.61-2.57-13.65-3.17-27.46-4.3-41.24-1.68-20.43-.5-40.78,1.32-61.11,2.35-26.3,7.78-51.99,17-76.76,9.01-24.2,21.7-46.25,38.97-65.59,18.1-20.26,39.81-35.37,64.72-46.1,17.16-7.39,35.03-11.86,53.48-14.49,16.44-2.34,32.94-3.62,49.52-2.75,10.2.53,20.41,1.58,30.53,2.95,22.97,3.1,44.96,9.68,65.72,20.03,27.88,13.91,50.72,33.74,68.67,59.25,9.29,13.21,17.08,27.24,23.19,42.13,3.84,9.36,6.67,19.14,10.03,28.7.55,1.55-.18,2.05-1.41,2.38-12.34,3.29-24.7,6.52-37.02,9.91-2.19.6-2.9-.02-3.48-2.07-5.59-19.72-13.33-38.5-25.15-55.37-14.57-20.81-33.27-36.85-56.33-47.61-14.92-6.97-30.62-11.55-46.87-14.17-19.69-3.18-39.51-3.85-59.33-1.89-21.88,2.16-43.28,6.49-63.19,16.47-26.32,13.19-46.58,32.61-60.78,58.41-12.4,22.54-19.79,46.73-23.45,72.07-1.58,10.99-2.62,22.08-3.32,33.16-1.47,23.04-.8,46.05,2.34,68.95,3.78,27.61,11.02,54.22,24.6,78.7,10.64,19.18,24.65,35.6,43.07,47.93,14.82,9.92,30.93,16.86,48.22,21.26,26.45,6.74,53.28,7.79,80.27,5.17,19.18-1.86,37.85-6.05,55.33-14.61,13.21-6.47,24.7-15.26,35.17-25.53,14.79-14.52,24.54-31.78,27.49-52.32,3.22-22.41-.42-43.57-14.59-61.98-5.65-7.35-12.77-13.21-20.53-18.27-.91-.59-1.94-1-3.14-1.6Zm-86.76-20.56c-9.08.67-18.22.86-27.22,2.11-11.17,1.56-21.75,5.07-30.85,12.2-14.93,11.7-18.14,32.88-7.06,47.5,5.64,7.43,13.4,11.84,22.06,14.59,12.18,3.88,24.71,4.29,37.26,2.27,8.56-1.38,16.81-3.85,23.99-9.06,11.25-8.17,17.66-19.59,21.72-32.51,3.13-9.95,4.51-20.25,5.61-30.59.16-1.51-.56-1.88-1.86-2.15-14.39-2.97-28.93-4.21-43.65-4.36Z"/>
</svg>