<?xml version="1.0" encoding="UTF-8"?>
<svg id="Layer_1" data-name="Layer 1" xmlns="http://www.w3.org/2000/svg" viewBox="0 0 1000.19 375.6">
  <g>
    <path d="m481.94,242.04h-27.12l-10.43-52.29-28.73,52.29h-25.68l-22.15-109.1h34.67c5.67,30.38,8.61,51.61,8.83,63.68l32.26-63.68h21.99l9.79,63.68,31.29-63.68h34.67l-59.38,109.1Z"/>
    <path d="m651.49,213.4c-6.26,10.35-14.93,18.18-26,23.49-11.07,5.31-23.62,7.96-37.63,7.96-16.37,0-29.42-4.16-39.16-12.49-9.74-8.32-14.71-19.87-14.93-34.65-.21-13.53,2.84-25.44,9.15-35.74,6.31-10.3,15.01-18.16,26.08-23.57,11.07-5.41,23.56-8.12,37.47-8.12,16.37,0,29.42,4.16,39.16,12.49,9.74,8.32,14.71,19.87,14.93,34.65.21,13.63-2.81,25.62-9.07,35.98Zm-29.45-49.95c-4.49-4.53-10.75-6.79-18.78-6.79-10.27,0-19.04,3.46-26.32,10.38-7.28,6.92-10.97,15.53-11.07,25.83-.21,7.6,1.95,13.76,6.5,18.5,4.55,4.73,10.73,7.1,18.54,7.1,10.59,0,19.45-3.49,26.56-10.46,7.11-6.97,10.78-15.71,10.99-26.22.21-7.7-1.93-13.81-6.42-18.34Z"/>
    <path d="m770.65,242.19h-33.7l-19.74-35.43h-12.36l-6.42,35.43h-31.78l19.74-109.26h54.89c12.09,0,21.37,3.07,27.84,9.21s9.71,13.73,9.71,22.79c0,19.67-10.11,32.52-30.33,38.55l22.47,36.83-.32,1.87Zm-56.81-84.6l-4.82,26.22h23.43c5.88-.42,10.27-3.33,13.16-8.74,2.78-4.99,3-9.36.64-13.11-1.93-2.81-5.03-4.27-9.31-4.37h-23.11Z"/>
    <path d="m904.17,134.81l-54.89,53.22c1.92,2.5,7.81,10.15,17.65,22.94,9.84,12.8,17.17,22.58,21.99,29.34l-.32,1.87h-38.52l-14.28-19.67-11.39-19.2-7.22,38.86h-31.78l19.74-109.26h31.78l-6.42,35.27,35.95-35.27h38.04l-.32,1.87Z"/>
    <path d="m978.64,162.9c-5.67-4.68-13.96-7.02-24.88-7.02-4.6,0-8.59.78-11.96,2.34-3.37,1.56-5.06,3.95-5.06,7.18,0,2.81,1.34,4.73,4.01,5.77,2.67,1.04,7.01,1.82,13,2.34,5.24.62,10.11,1.64,14.6,3.04,4.49,1.41,8.69,3.3,12.6,5.7s6.95,5.57,9.15,9.52c2.19,3.95,3.29,8.43,3.29,13.42,0,6.87-1.52,12.93-4.57,18.18-3.05,5.26-7.25,9.44-12.6,12.56-5.35,3.12-11.31,5.46-17.89,7.02-6.58,1.56-13.67,2.34-21.26,2.34-10.48,0-19.45-1.4-26.88-4.21-7.44-2.81-14.04-7.8-19.82-14.98l21.02-19.51c7.17,8.22,17.39,12.33,30.65,12.33,5.67,0,10.35-.96,14.04-2.89,3.69-1.92,5.54-4.5,5.54-7.73,0-4.89-5.72-7.91-17.17-9.05-5.99-.52-11.15-1.33-15.49-2.42s-8.45-2.71-12.36-4.84c-3.91-2.13-6.87-5.05-8.91-8.74-2.03-3.69-3.05-8.14-3.05-13.34,0-6.66,1.55-12.59,4.65-17.79,3.1-5.2,7.25-9.31,12.44-12.33s10.89-5.28,17.09-6.79c6.2-1.51,12.68-2.26,19.42-2.26,16.8,0,30.01,4.32,39.64,12.95l-19.26,19.2Z"/>
  </g>
  <path d="m139.55,322.47C62.82,322.39.01,259.56,0,182.86-.01,106.03,63.2,42.93,139.87,43.23c76.89.31,139.56,63.17,139.36,139.77-.2,76.82-63.02,139.54-139.68,139.46Zm11.32-212.96c0-5.95-.06-11.78.02-17.6.05-3.14-1.45-4.49-4.46-4.48-3.86.01-7.72.04-11.58,0-3.26-.04-4.62,1.49-4.53,4.75.13,4.79-.07,9.6.08,14.39.07,2.42-.33,3.85-3.16,4.28-2.61.4-5.19,1.4-7.63,2.48-13.76,6.15-23.45,15.9-25.61,31.34-2.32,16.57,4.36,29.31,18.46,37.9,6.44,3.93,13.5,6.86,20.34,10.13,6.94,3.32,14.22,6.04,20.87,9.86,11.55,6.63,11.01,20.62-.72,26.95-4.98,2.68-10.33,3.54-15.95,2.85-11.05-1.36-20.44-6.24-28.78-13.42-2.97-2.56-4.12-2.41-6.53.75-2.91,3.81-5.76,7.67-8.62,11.52-2.65,3.57-2.85,4.96.77,7.62,5.99,4.39,12.14,8.74,18.75,12.08,5.42,2.73,11.59,3.97,17.78,5.98,0,5.17-.01,10.66,0,16.14.01,4.43.83,5.23,5.37,5.27,3.28.03,6.55.04,9.83,0,4.38-.04,5.3-.98,5.31-5.39.02-5.58,0-11.16,0-16.65,1.7-.4,2.95-.69,4.2-1,23.66-5.8,37.82-29.09,31.67-51.74-2.93-10.79-10.29-17.74-19.62-22.62-8.25-4.31-17.13-7.41-25.53-11.45-5.84-2.82-11.84-5.71-16.88-9.7-7.13-5.63-6.54-15.43.56-21.24,5.89-4.82,12.87-5.91,20.17-5.14,9.21.98,17.17,5.02,24.41,10.64,3.02,2.35,4.55,2.05,6.4-1.27,2.51-4.49,4.84-9.07,7.42-13.52,1.47-2.52.95-4.42-1.19-6.11-1.47-1.16-2.92-2.34-4.45-3.42-8.06-5.74-17.24-8.59-27.17-10.17Z"/>
</svg>